<svg id="visual" viewBox="0 0 900 600" width="900" height="600" xmlns="http://www.w3.org/2000/svg" xmlns:xlink="http://www.w3.org/1999/xlink" version="1.1"><rect width="900" height="600" fill="#fff"></rect><g><g transform="translate(8 67)"><path d="M14.7 -22.7C18.3 -14.5 20.1 -9.2 20.4 -4.1C20.7 1 19.5 5.8 17.6 11.3C15.8 16.7 13.1 22.8 7 29.5C0.9 36.2 -8.8 43.4 -13.3 40.2C-17.9 37 -17.4 23.4 -21 13.8C-24.5 4.2 -32.2 -1.4 -33.8 -8.3C-35.4 -15.2 -30.9 -23.4 -24.3 -31C-17.6 -38.7 -8.8 -45.9 -1.6 -43.9C5.5 -41.9 11.1 -30.9 14.7 -22.7Z" stroke="#F7760E" fill="none" stroke-width="5"></path></g><g transform="translate(769 24)"><path d="M23.1 -29.7C29.1 -22.6 32.3 -14.4 31.7 -7.2C31.1 0.1 26.7 6.5 22.1 11.3C17.6 16.1 12.9 19.4 6.9 23.5C0.9 27.7 -6.5 32.8 -11.5 31.2C-16.6 29.6 -19.4 21.2 -22.6 13.9C-25.8 6.6 -29.4 0.4 -31.4 -8.5C-33.3 -17.4 -33.6 -28.9 -28.1 -36.1C-22.6 -43.3 -11.3 -46.2 -1.4 -44.6C8.6 -42.9 17.2 -36.8 23.1 -29.7Z" stroke="#F7760E" fill="none" stroke-width="5"></path></g><g transform="translate(853 414)"><path d="M4.1 -4C6.2 -3 9.7 -2.7 10.5 -1.3C11.4 0 9.7 2.3 8.1 4.4C6.6 6.4 5.1 8.3 3.4 8.6C1.6 8.9 -0.4 7.8 -1.9 6.6C-3.5 5.5 -4.5 4.4 -5.5 3C-6.4 1.7 -7.2 0.1 -7.6 -2.1C-8.1 -4.3 -8.3 -7.2 -7 -8.4C-5.7 -9.6 -2.8 -9.1 -0.9 -7.9C0.9 -6.8 1.9 -5.1 4.1 -4Z" stroke="#F7760E" fill="none" stroke-width="5"></path></g><g transform="translate(471 529)"><path d="M3.2 -4.3C3.7 -3.3 3.5 -2 3.3 -0.9C3.2 0.2 3.2 1 3.1 2.3C3 3.6 2.8 5.4 2.1 5.6C1.4 5.8 0.1 4.5 -1.5 3.9C-3 3.4 -5 3.7 -5.3 3.1C-5.7 2.5 -4.5 0.9 -4 -0.5C-3.5 -2 -3.7 -3.3 -3.2 -4.3C-2.6 -5.3 -1.3 -5.8 0 -5.8C1.3 -5.8 2.6 -5.3 3.2 -4.3Z" stroke="#F7760E" fill="none" stroke-width="5"></path></g><g transform="translate(187 394)"><path d="M5.2 -7C6.5 -5 7.2 -3.2 6.9 -1.7C6.6 -0.2 5.3 1.1 4.5 2.7C3.7 4.3 3.3 6.2 2.3 6.8C1.3 7.4 -0.4 6.5 -1.8 5.7C-3.2 4.9 -4.4 4 -6.7 2.6C-8.9 1.2 -12.3 -0.8 -13.1 -3.4C-14 -6.1 -12.4 -9.4 -9.7 -11.1C-7.1 -12.9 -3.6 -12.9 -0.8 -11.9C1.9 -11 3.8 -8.9 5.2 -7Z" stroke="#F7760E" fill="none" stroke-width="5"></path></g><g transform="translate(557 176)"><path d="M21.1 -30.2C24.8 -22 23.5 -13 22.9 -5.7C22.2 1.6 22.2 7.2 21.2 15.3C20.2 23.5 18.3 34.2 13.7 34.5C9.2 34.7 2 24.4 -7.4 20.8C-16.8 17.2 -28.4 20.1 -36.1 16.3C-43.8 12.4 -47.5 1.7 -46.2 -8.6C-45 -19 -38.8 -28.9 -30.3 -36.3C-21.7 -43.8 -10.9 -48.7 -1.1 -47.4C8.7 -46.1 17.3 -38.5 21.1 -30.2Z" stroke="#F7760E" fill="none" stroke-width="5"></path></g><g transform="translate(419 261)"><path d="M11.6 -15.7C14.8 -11.2 16.8 -7.3 17.5 -3.1C18.2 1 17.5 5.3 15.9 10.2C14.3 15 11.8 20.4 6.8 24.9C1.8 29.4 -5.8 33.1 -11.7 31.3C-17.7 29.5 -22 22.4 -25.6 15.2C-29.2 8.1 -32 1 -29.6 -3.9C-27.1 -8.7 -19.3 -11.2 -13.5 -15.2C-7.7 -19.2 -3.8 -24.7 0.2 -24.9C4.2 -25.2 8.4 -20.1 11.6 -15.7Z" stroke="#F7760E" fill="none" stroke-width="5"></path></g><g transform="translate(271 33)"><path d="M16.4 -24.5C18.5 -17.7 15.7 -10 17.5 -2.7C19.3 4.6 25.6 11.5 25.4 17.4C25.3 23.2 18.6 28 11.5 29.7C4.5 31.4 -3 30 -6.9 25.7C-10.9 21.3 -11.4 14.1 -15.8 8.2C-20.1 2.4 -28.5 -2 -31.2 -8.8C-34 -15.6 -31.2 -24.7 -25 -30.9C-18.9 -37 -9.5 -40.2 -1.2 -38.8C7.1 -37.4 14.2 -31.4 16.4 -24.5Z" stroke="#F7760E" fill="none" stroke-width="5"></path></g><g transform="translate(533 47)"><path d="M17.6 -18.6C23.4 -16.1 29 -11.1 30.4 -5.1C31.7 0.9 28.8 7.9 25.8 16.6C22.8 25.3 19.8 35.5 13.9 37.3C8.1 39 -0.6 32.1 -6 26C-11.4 19.9 -13.6 14.5 -19.7 8.9C-25.8 3.4 -35.9 -2.4 -36.5 -7.8C-37.2 -13.2 -28.5 -18.4 -20.8 -20.5C-13.2 -22.7 -6.6 -21.9 -0.3 -21.5C5.9 -21.1 11.8 -21.1 17.6 -18.6Z" stroke="#F7760E" fill="none" stroke-width="5"></path></g><g transform="translate(822 187)"><path d="M15.4 -21.1C18.7 -15.5 19.5 -9.5 21.6 -3.1C23.6 3.4 26.8 10.4 25.5 16.8C24.2 23.2 18.5 29.1 12 30.3C5.5 31.5 -1.7 28 -8.8 25C-15.9 22.1 -22.8 19.6 -26 14.7C-29.2 9.8 -28.7 2.4 -25.5 -2.5C-22.3 -7.5 -16.4 -10.1 -11.7 -15.5C-7 -20.9 -3.5 -29.2 1.2 -30.7C6 -32.2 12 -26.8 15.4 -21.1Z" stroke="#F7760E" fill="none" stroke-width="5"></path></g><g transform="translate(634 498)"><path d="M7.6 -11.2C9.7 -7.3 11.2 -4.8 11.7 -2C12.3 0.8 12 3.8 11.3 7.8C10.5 11.8 9.2 16.9 5.7 20.1C2.1 23.4 -3.7 24.9 -7 22.4C-10.3 19.8 -11 13.3 -13.7 8.1C-16.3 3 -20.9 -0.8 -21.1 -4.4C-21.3 -8.1 -17 -11.6 -12.8 -15.1C-8.5 -18.6 -4.2 -22 -0.7 -21.1C2.8 -20.2 5.5 -15 7.6 -11.2Z" stroke="#F7760E" fill="none" stroke-width="5"></path></g><g transform="translate(672 342)"><path d="M19.1 -20.9C22.8 -19.6 22.5 -11.8 22.6 -4.9C22.8 2 23.3 7.9 21.2 13C19.1 18.1 14.4 22.4 8.9 24.5C3.3 26.6 -3.2 26.5 -8.3 24.1C-13.5 21.7 -17.4 17 -18.5 12.1C-19.6 7.2 -17.9 2.2 -17.2 -3.2C-16.5 -8.6 -16.6 -14.3 -13.9 -15.7C-11.2 -17.2 -5.6 -14.4 1 -15.6C7.7 -16.8 15.4 -22.1 19.1 -20.9Z" stroke="#F7760E" fill="none" stroke-width="5"></path></g><g transform="translate(780 531)"><path d="M7.4 -7.7C10.8 -6.1 15.5 -4.8 17.4 -1.9C19.3 1 18.5 5.6 16 8.7C13.6 11.7 9.5 13.2 5.8 13.4C2.1 13.7 -1.1 12.8 -5.2 12.2C-9.2 11.6 -14.1 11.3 -15.3 8.9C-16.5 6.6 -14.1 2.3 -13.4 -2.5C-12.6 -7.2 -13.7 -12.3 -11.7 -14.2C-9.8 -16.1 -4.9 -14.8 -1.4 -13.1C2 -11.4 4.1 -9.4 7.4 -7.7Z" stroke="#F7760E" fill="none" stroke-width="5"></path></g><g transform="translate(52 450)"><path d="M13.1 -14.9C16.2 -13 17.5 -8.1 16.5 -4.3C15.5 -0.5 12.3 2.4 9.7 4.4C7.1 6.5 5.2 7.8 2.3 10.8C-0.6 13.7 -4.5 18.4 -9.3 19.3C-14.1 20.2 -19.8 17.5 -19.7 13.5C-19.6 9.4 -13.6 4 -10.8 -0.2C-8 -4.4 -8.3 -7.4 -7.1 -9.7C-5.8 -12 -2.9 -13.5 1 -14.7C5 -16 10 -16.9 13.1 -14.9Z" stroke="#F7760E" fill="none" stroke-width="5"></path></g><g transform="translate(87 277)"><path d="M9.4 -13.2C12.3 -8.8 14.9 -5.9 16.3 -2.2C17.8 1.5 18.2 6.1 16.1 8.9C14 11.6 9.4 12.5 5.1 14.2C0.7 15.8 -3.4 18.2 -8.4 18.5C-13.5 18.7 -19.5 16.7 -21.8 12.6C-24.2 8.5 -22.9 2.4 -21 -2.8C-19 -8 -16.4 -12.3 -12.8 -16.6C-9.2 -20.9 -4.6 -25.3 -0.7 -24.5C3.3 -23.7 6.5 -17.7 9.4 -13.2Z" stroke="#F7760E" fill="none" stroke-width="5"></path></g><g transform="translate(229 171)"><path d="M6.9 -10C8.4 -6.9 8.8 -4.3 10 -1.2C11.3 1.9 13.4 5.5 12.9 8.6C12.4 11.7 9.3 14.3 5.6 15.9C1.9 17.4 -2.3 17.8 -6.4 16.7C-10.4 15.6 -14.3 13 -16.9 9.3C-19.6 5.6 -21.1 0.8 -19 -2C-17 -4.9 -11.3 -5.8 -7.5 -8.4C-3.7 -11.1 -1.9 -15.4 0.4 -15.9C2.7 -16.4 5.4 -13 6.9 -10Z" stroke="#F7760E" fill="none" stroke-width="5"></path></g><g transform="translate(142 30)"><path d="M8.8 -10.4C12.9 -7.1 18.6 -5.7 21.4 -2C24.2 1.7 24 7.7 21.1 11.6C18.2 15.5 12.6 17.3 8.1 16.4C3.6 15.5 0.3 12 -5.6 11.5C-11.5 11.1 -19.9 13.7 -24.4 11.4C-28.9 9.1 -29.5 1.9 -26.1 -2.4C-22.7 -6.7 -15.3 -8 -10.3 -11.2C-5.3 -14.4 -2.6 -19.4 -0.1 -19.3C2.4 -19.1 4.7 -13.8 8.8 -10.4Z" stroke="#F7760E" fill="none" stroke-width="5"></path></g><g transform="translate(311 478)"><path d="M7.3 -10.6C8.4 -7.9 7.5 -4.5 7.6 -1.6C7.7 1.2 9 3.5 8.5 5.3C8 7.1 5.7 8.3 3.3 9.3C0.9 10.2 -1.7 10.9 -4.2 10.5C-6.8 10.1 -9.4 8.5 -10.5 6.2C-11.6 3.9 -11.4 1 -11.2 -2.4C-11.1 -5.7 -11.1 -9.4 -9.2 -12.1C-7.4 -14.7 -3.7 -16.3 -0.3 -16C3.1 -15.6 6.3 -13.4 7.3 -10.6Z" stroke="#F7760E" fill="none" stroke-width="5"></path></g><g transform="translate(312 337)"><path d="M21.1 -24.4C25 -21.9 24.1 -13 23.5 -5.8C22.8 1.5 22.3 7 20.5 13.4C18.7 19.7 15.5 26.8 10.4 28.6C5.4 30.5 -1.6 27 -8 23.9C-14.4 20.8 -20.3 17.9 -23.4 13.2C-26.6 8.4 -27 1.8 -26.5 -5.3C-26 -12.4 -24.5 -20 -20 -22.4C-15.4 -24.8 -7.7 -22.1 0.5 -22.6C8.6 -23.2 17.2 -27 21.1 -24.4Z" stroke="#F7760E" fill="none" stroke-width="5"></path></g><g transform="translate(431 124)"><path d="M8.5 -12.4C11.1 -7.9 13.4 -5.3 15.8 -1.4C18.1 2.6 20.5 7.9 19.3 12.2C18.1 16.6 13.3 19.9 8.5 20.3C3.7 20.8 -1 18.3 -4.9 15.8C-8.8 13.4 -11.9 11 -12.8 8.1C-13.8 5.1 -12.6 1.5 -13.3 -3.6C-13.9 -8.8 -16.4 -15.6 -14.5 -20.3C-12.5 -24.9 -6.3 -27.5 -1.7 -25.5C2.9 -23.5 5.8 -16.9 8.5 -12.4Z" stroke="#F7760E" fill="none" stroke-width="5"></path></g><g transform="translate(208 550)"><path d="M17.7 -22.5C22.9 -16.7 27 -11.1 28.4 -4.8C29.8 1.6 28.5 8.6 24.7 13.2C20.8 17.8 14.4 19.9 8.7 20.4C3.1 20.8 -1.8 19.7 -9 19.4C-16.3 19.1 -25.8 19.8 -30.6 15.6C-35.3 11.5 -35.4 2.6 -31 -2.5C-26.5 -7.6 -17.7 -9.1 -11.8 -14.7C-5.8 -20.3 -2.9 -30.2 1.7 -32.2C6.2 -34.1 12.5 -28.2 17.7 -22.5Z" stroke="#F7760E" fill="none" stroke-width="5"></path></g><g transform="translate(545 392)"><path d="M18.8 -21.9C26.9 -15.7 37.7 -12.1 39.3 -6.4C40.9 -0.7 33.3 7.1 27 13.3C20.7 19.5 15.6 24.2 9.2 27.4C2.9 30.6 -4.8 32.4 -10.1 29.6C-15.4 26.9 -18.3 19.6 -22.8 12.7C-27.2 5.9 -33.2 -0.5 -31.2 -4.5C-29.3 -8.4 -19.5 -10 -13 -16.5C-6.4 -23.1 -3.2 -34.6 1.1 -35.9C5.4 -37.2 10.8 -28.2 18.8 -21.9Z" stroke="#F7760E" fill="none" stroke-width="5"></path></g><g transform="translate(419 404)"><path d="M15 -17.5C19.1 -14.4 22 -9.4 22.9 -4C23.8 1.3 22.9 7 19.3 9.2C15.7 11.4 9.5 10.2 4.7 11.2C-0.1 12.1 -3.4 15.3 -5.4 14.7C-7.4 14 -8.2 9.6 -11 5.8C-13.9 2 -18.9 -1.1 -18.2 -2.9C-17.5 -4.7 -11.2 -5.2 -7.2 -8.3C-3.2 -11.4 -1.6 -17.1 1.9 -19.4C5.4 -21.6 10.9 -20.5 15 -17.5Z" stroke="#F7760E" fill="none" stroke-width="5"></path></g><g transform="translate(72 594)"><path d="M5.3 -7.3C6.1 -5.6 5.6 -3.2 6 -1C6.5 1.2 7.9 3.3 7.7 5.2C7.5 7.1 5.7 8.8 3.3 10.2C0.9 11.6 -2.1 12.7 -3.8 11.6C-5.6 10.5 -6.1 7.2 -7 4.6C-7.9 2 -9.1 0.1 -8.8 -1.5C-8.4 -3 -6.4 -4.1 -4.7 -5.7C-3 -7.2 -1.5 -9.2 0.4 -9.6C2.2 -10.1 4.4 -9 5.3 -7.3Z" stroke="#F7760E" fill="none" stroke-width="5"></path></g><g transform="translate(690 163)"><path d="M4.4 -5.8C5.2 -4.6 4.9 -2.7 5 -1C5.1 0.6 5.5 2 5.2 3.3C4.8 4.6 3.7 5.7 2.4 5.9C1.1 6 -0.2 5.2 -1.2 4.4C-2.3 3.6 -2.9 2.8 -3.3 2C-3.7 1.2 -3.7 0.3 -3.7 -0.7C-3.6 -1.7 -3.4 -2.8 -2.8 -4C-2.2 -5.3 -1.1 -6.7 0.4 -7.1C1.8 -7.5 3.6 -7 4.4 -5.8Z" stroke="#F7760E" fill="none" stroke-width="5"></path></g><g transform="translate(892 70)"><path d="M25.6 -28.8C32.8 -24.4 38.1 -16 39.4 -7.2C40.7 1.7 38 11 32 15.7C26 20.3 16.7 20.3 9.9 19.2C3.2 18.2 -1 16.2 -7.2 15.7C-13.3 15.2 -21.4 16.1 -27.1 12.6C-32.8 9.1 -36.2 1 -33.9 -5C-31.7 -11 -23.9 -15.1 -17.3 -19.6C-10.7 -24.2 -5.4 -29.2 1.9 -31.4C9.2 -33.7 18.3 -33.2 25.6 -28.8Z" stroke="#F7760E" fill="none" stroke-width="5"></path></g><g transform="translate(898 578)"><path d="M4.1 -5.6C5.4 -3.8 6.6 -2.6 7.3 -1C7.9 0.7 8.2 2.8 7.2 4C6.3 5.2 4.2 5.5 2.2 6.4C0.2 7.2 -1.7 8.6 -3.7 8.5C-5.6 8.5 -7.6 7 -9 5C-10.5 2.9 -11.4 0.4 -10.5 -1.3C-9.5 -2.9 -6.5 -3.6 -4.5 -5.2C-2.4 -6.9 -1.2 -9.4 0.1 -9.6C1.4 -9.7 2.8 -7.4 4.1 -5.6Z" stroke="#F7760E" fill="none" stroke-width="5"></path></g></g></svg>