<svg id="visual" viewBox="0 0 900 600" width="900" height="600" xmlns="http://www.w3.org/2000/svg" xmlns:xlink="http://www.w3.org/1999/xlink" version="1.1"><rect x="0" y="0" width="900" height="600" fill="#001220"></rect><defs><linearGradient id="grad1_0" x1="33.3%" y1="0%" x2="100%" y2="100%"><stop offset="20%" stop-color="#001220" stop-opacity="1"></stop><stop offset="80%" stop-color="#001220" stop-opacity="1"></stop></linearGradient></defs><defs><linearGradient id="grad2_0" x1="0%" y1="0%" x2="66.7%" y2="100%"><stop offset="20%" stop-color="#001220" stop-opacity="1"></stop><stop offset="80%" stop-color="#001220" stop-opacity="1"></stop></linearGradient></defs><g transform="translate(900, 0)"><path d="M0 162.2C-19.5 155.7 -38.9 149.1 -58.9 142.3C-78.9 135.4 -99.5 128.3 -114.7 114.7C-130 101.1 -139.9 81 -146.9 60.8C-153.9 40.6 -158.1 20.3 -162.2 0L0 0Z" fill="#FBAE3C"></path></g><g transform="translate(0, 600)"><path d="M0 -162.2C19.5 -156.1 39.1 -150 59.3 -143.2C79.6 -136.4 100.5 -128.9 114.7 -114.7C128.9 -100.5 136.4 -79.6 143.2 -59.3C150 -39.1 156.1 -19.5 162.2 0L0 0Z" fill="#FBAE3C"></path></g></svg>