<svg xmlns="http://www.w3.org/2000/svg" xmlns:xlink="http://www.w3.org/1999/xlink" width="1150" height="186" viewBox="0 0 1150 186">
  <defs>
    <polygon id="logo-master-a" points=".06 .978 146 .978 146 185.94 .06 185.94"/>
  </defs>
  <g fill="none" fill-rule="evenodd">
    <mask id="logo-master-b" fill="#fff">
      <use xlink:href="#logo-master-a"/>
    </mask>
    <path fill="#E4E5DC" d="M48,119 L48,144 L8,144 L8,43 L24,43 L24,119 L48,119 Z M98,110 L114,110 L114,77 L98,77 L98,110 Z M56,144 L90,144 L90,119 L56,119 L56,144 Z M56,110 L90,110 L90,77 L56,77 L56,110 Z M32,43 L90,43 L90,69 L48,69 L48,110 L32,110 L32,43 Z M113.384,9.602 L113.522,69 L98,69 L98,35 L32,35 L32,9.354 L113.384,9.602 Z M137,178 L56,178 L56,152 L98,152 L98,119 L122,119 L122,77 L137,77 L137,178 Z M121.952,1.225 L24,0.978 L24,35 L0,35 L0,152 L48,152 L48,186 L146,186 L146,69 L121.901,69 L121.952,1.225 Z" mask="url(#logo-master-b)"/>
    <path fill="#E4E5DC" d="M245.77 59.421C242.898 60.676 240.745 63.009 239.669 66.598 237.515 73.056 241.104 80.052 247.742 82.205 254.38 84.359 261.558 80.591 263.709 73.952 264.964 69.468 263.531 64.085 260.48 61.215 256.714 57.447 248.461 51.706 235.005 51.706 202.712 51.706 187.282 71.801 187.282 94.406 187.282 117.55 205.043 137.822 228.546 137.822 250.971 137.822 262.633 124.009 263.891 113.782L261.917 112.706C258.688 118.805 248.281 122.751 239.312 121.855 225.496 120.42 216.166 111.091 216.166 91.713 216.166 64.264 227.111 54.038 235.541 54.038 244.513 54.038 247.563 58.524 245.77 59.421M303 115.217L303 2.369 267 9.544 267 11.697C275 14.39 277 17.08 277 23.359L277 115.217C277 124.546 276 132.082 270 134.056L270 136 311 136 311 134.056C304 132.261 303 125.084 303 115.217M333.502 42.198C341.576 42.198 348.212 35.738 348.212 27.664 348.212 19.411 341.576 12.953 333.502 12.953 325.247 12.953 318.789 19.411 318.789 27.664 318.789 35.738 325.247 42.198 333.502 42.198M349 115.217L349 51.706 313 59.061 313 61.394C320 64.624 322 67.134 322 73.416L322 115.217C322 124.366 322 131.902 315 134.056L315 136 356 136 356 134.056C349 132.261 349 125.084 349 115.217M411.831 135.491C402.503 135.491 395 128.134 394 110.912L394 78.976C395 67.674 399.812 58.165 410.576 58.165 424.212 58.165 430.134 71.621 430.134 96.558 430.134 124.546 423.316 135.491 411.831 135.491zM422.956 51.706C410.398 51.706 399 56.371 394 66.059L394 51.706 358 59.061 358 61.394C366 64.085 367 65.879 367 72.158L367 163.477C367 172.628 367 179.446 360 181.417L360 184 401 184 401 181.417C395 179.803 394 173.344 394 163.477L394 132.978C399 136.028 406.63 137.822 415.602 137.822 439.64 137.822 460.989 126.699 460.989 94.406 460.989 69.288 445.382 51.706 422.956 51.706zM517.939 135.491C508.609 135.491 501 128.134 500 110.912L500 78.976C501 67.674 505.918 58.165 516.682 58.165 530.318 58.165 536.239 71.621 536.239 96.558 536.239 124.546 529.422 135.491 517.939 135.491zM529.062 51.706C516.504 51.706 505 56.371 500 66.059L500 51.706 464 59.061 464 61.394C472 64.085 474 65.879 474 72.158L474 163.477C474 172.628 473 179.446 467 181.417L467 184 507 184 507 181.417C501 179.803 500 173.344 500 163.477L500 132.978C505 136.028 512.736 137.822 521.706 137.822 545.748 137.822 567.097 126.699 567.097 94.406 567.097 69.288 551.488 51.706 529.062 51.706zM593.112 42.198C601.185 42.198 607.824 35.738 607.824 27.664 607.824 19.411 601.185 12.953 593.112 12.953 584.859 12.953 578.401 19.411 578.401 27.664 578.401 35.738 584.859 42.198 593.112 42.198M608 115.217L608 51.706 572 59.061 572 61.394C580 64.624 582 67.134 582 73.416L582 115.217C582 124.366 581 131.902 575 134.056L575 136 616 136 616 134.056C609 132.261 608 125.084 608 115.217"/>
    <path fill="#E4E5DC" d="M55 86.056L55 88 95 88 95 86.056C89 84.441 88 76.905 88 67.037L88 30.976C88 9.447 76.032 3.706 61.859 3.706 51.273 3.706 40 11.78 35 22.007L35 3.706 0 11.061 0 13.394C7 16.624 9 18.955 9 25.236L9 67.396C9 76.546 9 84.082 2 86.056L2 88 43 88 43 86.056C36 84.261 35 77.264 35 67.396L35 27.567C37 22.007 42.67 16.624 48.231 16.624 57.022 16.624 62 22.184 62 31.694L62 67.037C62 76.188 61 84.082 55 86.056M138.659 55.375C132.021 55.375 128.432 50.711 128.432 30.617 128.432 10.524 130.943 6.038 138.659 6.038 145.834 6.038 149.063 10.524 149.063 30.617 149.063 50.711 145.477 55.375 138.659 55.375zM130.943 96L155.345 96C168.441 96 170.593 105.29 170.593 105.29 170.593 105.29 172.746 114.779 164.853 120.162 154.985 127.158 137.402 126.252 122.333 118.715 122.333 118.715 96.856 107.985 114.437 93.274 121.435 96.144 128.971 96 130.943 96zM182.434 1.194C178.309 2.092 172.028 4.603 166.647 11.78 160.905 6.936 151.936 3.706 138.659 3.706 113.182 3.706 102.955 16.085 102.955 30.617 102.955 38.869 107.262 49.456 119.104 54.12 102.059 61.118 102.418 76.546 102.418 76.546 102.418 84.619 106.903 89.285 112.106 91.796 102.418 96.101 89.321 108.481 96.497 123.909 103.314 138.621 139.196 139.878 161.623 126.063 179.924 114.76 180.999 100.492 180.999 100.492 184.768 69.814 163.059 69 151.217 69L126.099 69C107.799 69 116.95 57.613 121.794 55.1 126.279 56.895 131.482 57.571 138.659 57.571 165.569 57.571 174.541 42.659 174.541 30.638 174.541 24.179 172.567 17.71 168.262 13.225 171.311 10.176 175.257 9.452 174.9 11.066 174.541 13.579 175.437 16.447 177.411 18.6 181.179 22.905 188.174 23.443 192.482 19.495 196.966 15.549 197.325 8.731 193.378 4.424 190.508 1.554 186.023.477 182.434 1.194z" transform="translate(617 48)"/>
    <path fill="#E4E5DC" d="M861.871 87.947L843.75 76.645C828.143 66.777 833.344 53.984 845.006 53.984 859.54 53.984 869.405 65 872.098 76L874 76 874 56.91C874 56.91 865.425 51.706 844.791 51.706 825.595 51.706 819.064 60.496 819.064 60.496 808.658 73.056 813.198 89.203 830.42 100.146L848.568 111.091C862.203 120.061 859.704 135.649 846.966 135.649 830.461 135.649 820.247 120 817.018 108L815 108 815 130.647C815 130.647 825.427 137.822 847.136 137.822 866.692 137.822 873.431 128.134 873.431 128.134 882.76 115.756 878.017 97.815 861.871 87.947M1059 115.037L1059 78.976C1059 57.447 1048.62 51.706 1034.45 51.706 1023.51 51.706 1013.21 59.78 1009.26 70.544 1007.11 56.91 997.868 51.706 985.308 51.706 974.724 51.706 965 59.6 961 69.468L961 51.706 925 59.061 925 61.394C932 64.624 934 67.494 934 73.773L934 115.396C934 124.546 934 132.082 927 134.056L927 136 968 136 968 134.056C962 132.261 961 125.264 961 115.396L961 75.387C962 70.364 967.424 64.624 972.807 64.624 979.984 64.624 983 69.468 983 79.694L983 115.037C983 124.188 983 132.082 976 134.056L976 136 1017 136 1017 134.056C1011 132.441 1010 124.905 1010 115.037L1010 79.515C1010 78.437 1010 77.9 1010 76.285 1010 70.364 1016.24 64.624 1021.81 64.624 1028.98 64.624 1032 69.468 1032 79.694L1032 115.037C1032 124.188 1032 132.082 1025 134.056L1025 136 1066 136 1066 134.056C1060 132.441 1059 124.905 1059 115.037M1111.63 54.22C1120.6 54.22 1125.45 68 1125.45 91L1096.38 91C1096.38 74 1102.12 54.22 1111.63 54.22zM1117.91 126.265C1105.89 123.575 1097.1 116 1096.38 93L1149.31 93C1149.31 62 1134.24 51.632 1111.63 51.632 1088.31 51.632 1068.04 67.097 1068.04 95.085 1068.04 117.692 1085.62 137.803 1109.12 137.803 1132.44 137.803 1144.29 124.357 1146.8 113.054L1144.46 112.125C1140.52 123.967 1127.24 128.419 1117.91 126.265z"/>
    <polygon fill="#E4E5DC" points="891 137 917 137 917 111 891 111"/>
  </g>
</svg>
